<?xml version="1.0" encoding="UTF-8"?>
<svg xmlns="http://www.w3.org/2000/svg" width="480" height="480" viewBox="12 -27 480 480" role="img" aria-label="Laptop with Voca mark on screen and a larger MDM lock badge at top right">
  <!--
    v9  transparent ground: the lock's halo is masked out of the machine
    instead of painted in a page colour, so the glyph sits on any background.
    Box trimmed to the artwork so the glyph centres on its own. Chassis B (slightly smaller). Lock 132×104 t18. Mic 0.53, left/down.
  -->
  <defs>
    <mask id="vm-lock-cut" maskUnits="userSpaceOnUse" x="-64" y="-128" width="704" height="768">
      <rect x="-64" y="-128" width="704" height="768" fill="#FFF"/>
      <path fill="#000" d="M 340,132 L 340,88 A 56 56 0 0 1 452,88 L 452,132 Z"/>
      <rect x="320" y="94" width="152" height="124" rx="32" fill="#000"/>
    </mask>
  </defs>
  <g mask="url(#vm-lock-cut)">
    <path d="M 84 104 H 368 A 32 32 0 0 1 400 136 V 356 H 52 V 136 A 32 32 0 0 1 84 104 Z" fill="#14231C"/>
    <path d="M 32 344 H 420 V 372 A 12 12 0 0 1 408 384 H 44 A 12 12 0 0 1 32 372 Z" fill="#14231C"/>
    <rect x="74" y="126" width="304" height="208" rx="10" fill="#0F6B57"/>
    <g transform="translate(94.895 115.955) scale(0.53)">
      <path d="M 164 127 A 65 65 0 0 1 294 127 L 294 224 A 65 65 0 0 1 164 224 Z" fill="#F2F6F2"/>
      <path d="M 144.87 202.02 A 87 87 0 1 0 312.13 202.02" fill="none" stroke="#F2F6F2" stroke-width="18" stroke-linecap="round"/>
      <path d="M 228.5 313 L 228.5 382" fill="none" stroke="#F2F6F2" stroke-width="18" stroke-linecap="round"/>
      <path d="M 170 382 L 287 382" fill="none" stroke="#F2F6F2" stroke-width="18" stroke-linecap="round"/>
      <path d="M 123.12 168.78 A 129.0 99.2 0 0 0 123.12 283.22" fill="none" stroke="#F2F6F2" stroke-width="18" stroke-linecap="round"/>
      <path d="M 333.88 168.78 A 129.0 99.2 0 0 1 333.88 283.22" fill="none" stroke="#F2F6F2" stroke-width="18" stroke-linecap="round"/>
    </g>
  </g>
  <g>
    <path fill="#0F6B57" fill-rule="evenodd" d="M 350,122 L 350,88 A 46 46 0 0 1 442,88 L 442,122 L 424,122 L 424,88 A 28 28 0 0 0 368,88 L 368,122 Z"/>
    <rect x="330" y="104" width="132" height="104" rx="22" fill="#0F6B57"/>
    <circle cx="396" cy="148" r="15" fill="#F2F6F2"/>
  </g>
</svg>
